# xmcd CD database file
#
# Track frame offsets:
#	150
#	25547
#	44406
#	64358
#	84295
#	109631
#	128485
#	148422
#
# Disc length: 2239 seconds
#
# Revision: 3
# Processed by: cddbd v1.5.2PL0 Copyright (c) Steve Scherf et al.
# Submitted via: CDex 1.70beta2
#
DISCID=6608bd08
DTITLE=三代目 J Soul Brothers - 0～ZERO～
DYEAR=2012
DGENRE=JPop
TTITLE0=花火
TTITLE1=(YOU SHINE) THE WORLD
TTITLE2=Kiss You Tonight
TTITLE3=LET'S PARTY
TTITLE4=:花火 (instrumental)
TTITLE5=(YOU SHINE) THE WORLD (instrumental)rumental)
TTITLE6=Kiss You Tonight (instrumental)
TTITLE7=LET’S PARTY (instrumental)
EXTD=120808 [RZCD59173] http://www.dmm.com/mono/cd/-/detail/=/cid=cd_087rzcd59173s/ YEAR: 2012
EXTT0=
EXTT1=
EXTT2=
EXTT3=
EXTT4=
EXTT5=
EXTT6=
EXTT7=
PLAYORDER=
